<svg xmlns="http://www.w3.org/2000/svg" baseProfile="full" version="1.1" width="1800px" height="885px" style="fill: none; width: 1450px; height: 524px;"><path d="" style="stroke-width: 15; stroke-linecap: round; stroke-linejoin: round; stroke: rgb(68, 68, 68); fill: none;"/><path d="" style="stroke-width: 15; stroke-linecap: round; stroke-linejoin: round; stroke: rgb(235, 63, 72); fill: none;"/><path d="M720,240 L720,240 L705,420 M735,420 A75,90 0 0,0 810,330 A135,120 0 0,0 675,210 M840,420 A15,60 0 0,1 855,360 L855,360 L855,390 A15,30 0 0,0 870,420 Q915,375 960,375 Q960,375 960,375 Q1005,375 1065,405 Q1065,405 1065,405 Q1095,420 1140,420 " style="stroke-width: 9; stroke-linecap: round; stroke-linejoin: bevel; stroke: rgb(38, 38, 39); fill: none;"/></svg>